<?xml version="1.0" encoding="UTF-8" standalone="no"?>
<svg width="512" height="512" viewBox="0 0 512 512" fill="none" xmlns="http://www.w3.org/2000/svg">
  <!-- 背景 -->
  <rect width="512" height="512" fill="#ffd6e7"/>
  
  <!-- 动漫风格背景图案 -->
  <g opacity="0.2">
    <circle cx="100" cy="100" r="20" fill="#ff6eb4" />
    <circle cx="400" cy="150" r="15" fill="#ff6eb4" />
    <circle cx="200" cy="400" r="25" fill="#ff6eb4" />
    <circle cx="450" cy="350" r="18" fill="#ff6eb4" />
    <circle cx="300" cy="80" r="12" fill="#ff6eb4" />
    <circle cx="80" cy="300" r="22" fill="#ff6eb4" />
  </g>
  
  <!-- 星星装饰 -->
  <path d="M 50,50 L 55,40 L 60,50 L 70,55 L 60,60 L 55,70 L 50,60 L 40,55 Z" fill="#ffcc00" />
  <path d="M 450,100 L 455,90 L 460,100 L 470,105 L 460,110 L 455,120 L 450,110 L 440,105 Z" fill="#ffcc00" />
  <path d="M 100,450 L 105,440 L 110,450 L 120,455 L 110,460 L 105,470 L 100,460 L 90,455 Z" fill="#ffcc00" />
  <path d="M 400,400 L 405,390 L 410,400 L 420,405 L 410,410 L 405,420 L 400,410 L 390,405 Z" fill="#ffcc00" />
  
  <!-- 动漫角色轮廓 - 简化的可爱风格 -->
  <g transform="translate(256, 256) scale(0.8)">
    <!-- 头部 -->
    <circle cx="0" cy="0" r="80" fill="#ffe0e0" stroke="#ff6eb4" stroke-width="3" />
    
    <!-- 眼睛 -->
    <ellipse cx="-30" cy="-10" rx="15" ry="20" fill="#ffffff" stroke="#000000" stroke-width="2" />
    <ellipse cx="30" cy="-10" rx="15" ry="20" fill="#ffffff" stroke="#000000" stroke-width="2" />
    
    <!-- 眼珠 -->
    <circle cx="-30" cy="-5" r="8" fill="#6e7eff" />
    <circle cx="30" cy="-5" r="8" fill="#6e7eff" />
    
    <!-- 高光 -->
    <circle cx="-34" cy="-9" r="3" fill="#ffffff" />
    <circle cx="26" cy="-9" r="3" fill="#ffffff" />
    
    <!-- 腮红 -->
    <circle cx="-50" cy="20" r="15" fill="#ffb6c1" opacity="0.5" />
    <circle cx="50" cy="20" r="15" fill="#ffb6c1" opacity="0.5" />
    
    <!-- 嘴巴 -->
    <path d="M -10,30 Q 0,40 10,30" stroke="#ff6eb4" stroke-width="3" fill="none" />
    
    <!-- 头发 -->
    <path d="M -80,-20 C -100,-60 -40,-100 0,-90 C 40,-100 100,-60 80,-20" fill="#ffcc00" stroke="#ff9900" stroke-width="2" />
    <path d="M -70,-10 C -80,-40 -30,-80 0,-70 C 30,-80 80,-40 70,-10" fill="#ffcc00" stroke="#ff9900" stroke-width="0" />
    
    <!-- 发饰 -->
    <circle cx="-60" cy="-40" r="12" fill="#ff6eb4" />
    <circle cx="60" cy="-40" r="12" fill="#ff6eb4" />
  </g>
  
  <!-- 装饰性边框 -->
  <rect x="10" y="10" width="492" height="492" rx="20" ry="20" stroke="#ff6eb4" stroke-width="3" fill="none" />
  
  <!-- 角落装饰 -->
  <path d="M 10,10 L 50,10 L 50,20 L 20,20 L 20,50 L 10,50 Z" fill="#ff6eb4" />
  <path d="M 502,10 L 462,10 L 462,20 L 492,20 L 492,50 L 502,50 Z" fill="#ff6eb4" />
  <path d="M 10,502 L 50,502 L 50,492 L 20,492 L 20,462 L 10,462 Z" fill="#ff6eb4" />
  <path d="M 502,502 L 462,502 L 462,492 L 492,492 L 492,462 L 502,462 Z" fill="#ff6eb4" />
</svg>
