<?xml version="1.0" encoding="UTF-8" standalone="no"?>
<svg width="512" height="512" viewBox="0 0 512 512" fill="none" xmlns="http://www.w3.org/2000/svg">
  <!-- 背景 -->
  <rect width="512" height="512" fill="#0a0a20"/>
  
  <!-- 赛博风格网格 -->
  <g stroke="#00f3ff" stroke-opacity="0.2" stroke-width="1">
    <!-- 水平线 -->
    <line x1="0" y1="64" x2="512" y2="64" />
    <line x1="0" y1="128" x2="512" y2="128" />
    <line x1="0" y1="192" x2="512" y2="192" />
    <line x1="0" y1="256" x2="512" y2="256" />
    <line x1="0" y1="320" x2="512" y2="320" />
    <line x1="0" y1="384" x2="512" y2="384" />
    <line x1="0" y1="448" x2="512" y2="448" />
    
    <!-- 垂直线 -->
    <line x1="64" y1="0" x2="64" y2="512" />
    <line x1="128" y1="0" x2="128" y2="512" />
    <line x1="192" y1="0" x2="192" y2="512" />
    <line x1="256" y1="0" x2="256" y2="512" />
    <line x1="320" y1="0" x2="320" y2="512" />
    <line x1="384" y1="0" x2="384" y2="512" />
    <line x1="448" y1="0" x2="448" y2="512" />
  </g>
  
  <!-- 中心圆形 -->
  <circle cx="256" cy="256" r="100" fill="url(#gradient1)" />
  
  <!-- 光晕效果 -->
  <circle cx="256" cy="256" r="150" fill="url(#gradient2)" />
  
  <!-- 装饰线条 -->
  <path d="M 128,128 L 384,384" stroke="#ff00a0" stroke-width="2" stroke-opacity="0.7" />
  <path d="M 384,128 L 128,384" stroke="#ff00a0" stroke-width="2" stroke-opacity="0.7" />
  
  <!-- 小圆点装饰 -->
  <circle cx="128" cy="128" r="8" fill="#00f3ff" />
  <circle cx="384" cy="128" r="8" fill="#00f3ff" />
  <circle cx="128" cy="384" r="8" fill="#00f3ff" />
  <circle cx="384" cy="384" r="8" fill="#00f3ff" />
  
  <!-- 渐变定义 -->
  <defs>
    <radialGradient id="gradient1" cx="0.5" cy="0.5" r="0.5" gradientUnits="objectBoundingBox">
      <stop offset="0%" stop-color="#ff00a0" />
      <stop offset="100%" stop-color="#00f3ff" stop-opacity="0.5" />
    </radialGradient>
    
    <radialGradient id="gradient2" cx="0.5" cy="0.5" r="0.5" gradientUnits="objectBoundingBox">
      <stop offset="0%" stop-color="transparent" />
      <stop offset="70%" stop-color="#00f3ff" stop-opacity="0.2" />
      <stop offset="100%" stop-color="#00f3ff" stop-opacity="0" />
    </radialGradient>
  </defs>
</svg>
