<svg viewBox="0 0 400 300" xmlns="http://www.w3.org/2000/svg">
  <!-- 木鱼底座 -->
  <ellipse cx="200" cy="240" rx="120" ry="30" fill="#8B4513" />
  <path d="M120 230 Q 200 250 280 230 L 280 240 Q 200 270 120 240 Z" fill="#5D2906" />
  
  <!-- 木鱼主体 -->
  <ellipse cx="200" cy="150" rx="130" ry="70" fill="#CD853F" />
  <ellipse cx="200" cy="150" rx="120" ry="60" fill="#D2B48C" />
  
  <!-- 木鱼纹理 -->
  <path d="M110 120 Q 200 140 290 120" stroke="#8B4513" stroke-width="2" fill="none" />
  <path d="M110 150 Q 200 170 290 150" stroke="#8B4513" stroke-width="2" fill="none" />
  <path d="M110 180 Q 200 200 290 180" stroke="#8B4513" stroke-width="2" fill="none" />
  
  <!-- 木鱼面部特征 -->
  <!-- 眼睛 -->
  <circle cx="150" cy="140" r="10" fill="white" />
  <circle cx="250" cy="140" r="10" fill="white" />
  <circle cx="150" cy="138" r="5" fill="black" />
  <circle cx="250" cy="138" r="5" fill="black" />
  <circle cx="152" cy="136" r="2" fill="white" />
  <circle cx="252" cy="136" r="2" fill="white" />
  
  <!-- 腮红 -->
  <ellipse cx="130" cy="160" rx="15" ry="10" fill="#FF9999" opacity="0.6" />
  <ellipse cx="270" cy="160" rx="15" ry="10" fill="#FF9999" opacity="0.6" />
  
  <!-- 嘴巴 -->
  <path d="M180 170 Q 200 180 220 170" stroke="#8B4513" stroke-width="2" fill="none" />
  
  <!-- 木鱼敲打器 -->
  <rect x="195" y="50" width="10" height="60" rx="5" fill="#8B4513" />
  <ellipse cx="200" cy="40" rx="18" ry="12" fill="#D2B48C" />
  <ellipse cx="200" cy="40" rx="14" ry="8" fill="#8B4513" />
  
  <!-- 可爱装饰 -->
  <path d="M110 100 Q 120 90 130 100" stroke="#8B4513" stroke-width="2" fill="none" />
  <path d="M270 100 Q 280 90 290 100" stroke="#8B4513" stroke-width="2" fill="none" />
  
  <!-- 小音符 -->
  <path d="M300 120 L 305 110 L 310 120 L 315 110 L 320 120" stroke="#8B4513" stroke-width="2" fill="none" />
  <path d="M80 120 L 85 110 L 90 120 L 95 110 L 100 120" stroke="#8B4513" stroke-width="2" fill="none" />
</svg>