<?xml version="1.0" encoding="UTF-8" standalone="no"?>
<svg width="512" height="512" viewBox="0 0 512 512" fill="none" xmlns="http://www.w3.org/2000/svg">
  <!-- 背景 -->
  <rect width="512" height="512" fill="#120b1e"/>
  
  <!-- 赛博朋克城市轮廓 -->
  <path d="M 0,350 L 30,350 L 30,300 L 60,300 L 60,320 L 90,320 L 90,280 L 120,280 L 120,350 L 150,350 L 150,250 L 180,250 L 180,300 L 210,300 L 210,200 L 240,200 L 240,150 L 270,150 L 270,250 L 300,250 L 300,180 L 330,180 L 330,220 L 360,220 L 360,280 L 390,280 L 390,200 L 420,200 L 420,300 L 450,300 L 450,250 L 480,250 L 480,350 L 512,350 L 512,400 L 0,400 Z" fill="#1a0b2e" />
  
  <!-- 霓虹灯效果 -->
  <path d="M 0,350 L 30,350 L 30,300 L 60,300 L 60,320 L 90,320 L 90,280 L 120,280 L 120,350 L 150,350 L 150,250 L 180,250 L 180,300 L 210,300 L 210,200 L 240,200 L 240,150 L 270,150 L 270,250 L 300,250 L 300,180 L 330,180 L 330,220 L 360,220 L 360,280 L 390,280 L 390,200 L 420,200 L 420,300 L 450,300 L 450,250 L 480,250 L 480,350 L 512,350" stroke="#ff00a0" stroke-width="2" stroke-opacity="0.8" fill="none" />
  
  <!-- 霓虹灯窗户 -->
  <rect x="45" y="310" width="10" height="15" fill="#00f3ff" opacity="0.8" />
  <rect x="75" y="330" width="10" height="15" fill="#ffcc00" opacity="0.8" />
  <rect x="105" y="290" width="10" height="15" fill="#00f3ff" opacity="0.8" />
  <rect x="135" y="320" width="10" height="15" fill="#ff00a0" opacity="0.8" />
  <rect x="165" y="260" width="10" height="15" fill="#00f3ff" opacity="0.8" />
  <rect x="195" y="310" width="10" height="15" fill="#ffcc00" opacity="0.8" />
  <rect x="225" y="210" width="10" height="15" fill="#00f3ff" opacity="0.8" />
  <rect x="255" y="160" width="10" height="15" fill="#ff00a0" opacity="0.8" />
  <rect x="285" y="260" width="10" height="15" fill="#00f3ff" opacity="0.8" />
  <rect x="315" y="190" width="10" height="15" fill="#ffcc00" opacity="0.8" />
  <rect x="345" y="230" width="10" height="15" fill="#00f3ff" opacity="0.8" />
  <rect x="375" y="290" width="10" height="15" fill="#ff00a0" opacity="0.8" />
  <rect x="405" y="210" width="10" height="15" fill="#00f3ff" opacity="0.8" />
  <rect x="435" y="310" width="10" height="15" fill="#ffcc00" opacity="0.8" />
  <rect x="465" y="260" width="10" height="15" fill="#00f3ff" opacity="0.8" />
  
  <!-- 月亮 -->
  <circle cx="400" cy="100" r="40" fill="url(#moonGradient)" />
  
  <!-- 光晕 -->
  <circle cx="400" cy="100" r="60" fill="url(#glowGradient)" />
  
  <!-- 赛博朋克标志 -->
  <g transform="translate(256, 150) scale(0.8)">
    <path d="M -50,-50 L 50,-50 L 50,50 L -50,50 Z" stroke="#00f3ff" stroke-width="3" fill="none" />
    <path d="M -30,-30 L 30,-30 L 30,30 L -30,30 Z" stroke="#ff00a0" stroke-width="2" fill="none" />
    <path d="M -10,-10 L 10,-10 L 10,10 L -10,10 Z" fill="#00f3ff" fill-opacity="0.5" />
    <line x1="-60" y1="0" x2="60" y2="0" stroke="#ffcc00" stroke-width="2" />
    <line x1="0" y1="-60" x2="0" y2="60" stroke="#ffcc00" stroke-width="2" />
  </g>
  
  <!-- 渐变定义 -->
  <defs>
    <radialGradient id="moonGradient" cx="0.5" cy="0.5" r="0.5" gradientUnits="objectBoundingBox">
      <stop offset="0%" stop-color="#ffcc00" />
      <stop offset="100%" stop-color="#ff00a0" />
    </radialGradient>
    
    <radialGradient id="glowGradient" cx="0.5" cy="0.5" r="0.5" gradientUnits="objectBoundingBox">
      <stop offset="0%" stop-color="#ff00a0" stop-opacity="0.3" />
      <stop offset="100%" stop-color="#ff00a0" stop-opacity="0" />
    </radialGradient>
  </defs>
</svg>
